<?xml version="1.0" encoding="UTF-8" standalone="no"?>
<!-- Created with Inkscape (http://www.inkscape.org/) -->
<svg xmlns:dc="http://purl.org/dc/elements/1.1/" xmlns:cc="http://creativecommons.org/ns#" xmlns:rdf="http://www.w3.org/1999/02/22-rdf-syntax-ns#" xmlns:svg="http://www.w3.org/2000/svg" xmlns="http://www.w3.org/2000/svg" xmlns:sodipodi="http://sodipodi.sourceforge.net/DTD/sodipodi-0.dtd" xmlns:inkscape="http://www.inkscape.org/namespaces/inkscape" width="100.00486" height="88.783134" id="svg3622" version="1.1" inkscape:version="0.48.1 " sodipodi:docname="ZZ1.svg">
  <defs id="defs3624">
    <inkscape:perspective sodipodi:type="inkscape:persp3d" inkscape:vp_x="0 : 526.18109 : 1" inkscape:vp_y="0 : 1000 : 0" inkscape:vp_z="744.09448 : 526.18109 : 1" inkscape:persp3d-origin="372.04724 : 350.78739 : 1" id="perspective3630"/>
    <inkscape:perspective id="perspective3660" inkscape:persp3d-origin="176.875 : 107.91667 : 1" inkscape:vp_z="353.75 : 161.875 : 1" inkscape:vp_y="0 : 1000 : 0" inkscape:vp_x="0 : 161.875 : 1" sodipodi:type="inkscape:persp3d"/>
    <inkscape:perspective id="perspective2855" inkscape:persp3d-origin="0.5 : 0.33333333 : 1" inkscape:vp_z="1 : 0.5 : 1" inkscape:vp_y="0 : 1000 : 0" inkscape:vp_x="0 : 0.5 : 1" sodipodi:type="inkscape:persp3d"/>
  </defs>
  <sodipodi:namedview id="base" pagecolor="#ffffff" bordercolor="#666666" borderopacity="1.0" inkscape:pageopacity="0.0" inkscape:pageshadow="2" inkscape:zoom="2.8" inkscape:cx="32.479992" inkscape:cy="23.778651" inkscape:document-units="px" inkscape:current-layer="layer1" showgrid="false" inkscape:window-width="1280" inkscape:window-height="1004" inkscape:window-x="-8" inkscape:window-y="-8" inkscape:window-maximized="1" fit-margin-top="0" fit-margin-left="0" fit-margin-right="0" fit-margin-bottom="0"/>
  <metadata id="metadata3627">
    <rdf:RDF>
      <cc:Work rdf:about="">
        <dc:format>image/svg+xml</dc:format>
        <dc:type rdf:resource="http://purl.org/dc/dcmitype/StillImage"/>
        <dc:title/>
      </cc:Work>
    </rdf:RDF>
  </metadata>
  <g inkscape:label="Layer 1" inkscape:groupmode="layer" id="layer1" transform="translate(-0.35508182,-963.07077)">
    <path style="fill:#e10000;fill-opacity:1" d="m 57.656536,966.11954 c 0,0 27.926487,50.23886 41.890856,75.35766 0.991148,1.7261 0.908688,3.5045 0.621368,5.2932 -0.45361,2.824 -3.165891,5.0835 -5.807839,5.0835 0,0 -87.7445113,0 -87.7445113,0 -2.6430399,0 -5.4974777,-2.1746 -6.05658295,-4.9888 -0.23878182,-1.2019 -0.30519258,-2.5067 0,-3.682 0.56109295,-2.1607 2.11388925,-3.9615 3.26386865,-5.8778 0,0 41.7539626,-69.57853 41.7539626,-69.57853 1.108483,-1.84717 2.832791,-4.55185 6.077397,-4.64882 3.426831,-0.10241 4.689215,0.88905 6.001481,3.04159 z" id="path3636" sodipodi:nodetypes="ccsssssssss" inkscape:connector-curvature="0"/>
    <path style="fill:#fefefe" d="m 51.850729,977.52979 c 0,0 34.299122,63.28621 34.299122,63.28621 0,0 -71.345378,-0.011 -71.345378,-0.011 0,0 37.046256,-63.27521 37.046256,-63.27521 z" id="path3640" sodipodi:nodetypes="cccc" inkscape:connector-curvature="0"/>
    <path style="fill:#000000" id="path16" d="m 50.184668,1014.2191 c -0.154553,0 -0.294032,0.062 -0.394873,0.1631 -0.10084,0.1009 -0.163042,0.2404 -0.163042,0.3949 l 0,0.099 0,0.099 0,0.1191 0,0.1192 -0.04653,0 -0.04653,0 0.04653,0.032 0.04653,0.032 0,0.09 0,0.09 0,0.2441 0,0.2442 -2.031239,1.3831 -2.031239,1.3832 -0.0058,0 -0.0058,0 0.0058,0 0.0058,0 2.077772,1.4181 2.077771,1.4181 -1.67095,0 -1.67095,0 c -0.307603,0 -0.592284,0.093 -0.828449,0.2516 -0.236165,0.1589 -0.423816,0.3841 -0.537358,0.6492 l -8.406929,0 -8.406929,0 c -0.308242,0 -0.585762,0.1234 -0.786221,0.3239 -0.200459,0.2004 -0.323857,0.4779 -0.323857,0.7862 0,0 -0.178002,0.9071 -0.359265,1.822 -0.181264,0.9148 -0.365789,1.8374 -0.378835,1.8685 -0.193147,0.4582 -0.34282,0.94 -0.444206,1.4398 -0.101387,0.4998 -0.154487,1.0175 -0.154487,1.5476 l 0,3.15 0,3.1501 1.139132,0 1.139132,0 c 0.02893,0 0.05598,0.015 0.08335,0.024 0.02737,0.01 0.05506,0.017 0.08526,0.017 l 0.86889,0 0.868889,0 0,0.3894 0,0.3893 1.211753,0 1.211754,0 c 0.01318,0.4588 0.206487,0.8729 0.511982,1.1723 0.305496,0.2994 0.723179,0.4841 1.185111,0.4841 0.462157,0 0.879996,-0.1846 1.185524,-0.4839 0.305528,-0.2993 0.498744,-0.7135 0.511655,-1.1725 l 1.214675,0 1.214675,0 c 0.01318,0.4588 0.205026,0.8729 0.509061,1.1723 0.304034,0.2994 0.720256,0.4841 1.182189,0.4841 0.462157,0 0.879996,-0.1846 1.185524,-0.4839 0.305527,-0.2993 0.498743,-0.7135 0.511654,-1.1725 l 9.145032,0 9.145032,0 c 0.01318,0.4588 0.205028,0.8729 0.509064,1.1723 0.304035,0.2994 0.720257,0.4841 1.182186,0.4841 0.462157,0 0.879997,-0.1846 1.185525,-0.4839 0.305527,-0.2993 0.498743,-0.7135 0.511654,-1.1725 l 1.19141,0 1.191411,0 c 0.01318,0.4588 0.205027,0.8729 0.509061,1.1723 0.304035,0.2994 0.720257,0.4841 1.182189,0.4841 0.462157,0 0.881456,-0.1846 1.188431,-0.4839 0.306975,-0.2993 0.501626,-0.7135 0.514491,-1.1725 l 1.278589,0 1.278589,0 0,-0.3893 0,-0.3893 0.822404,0 0.822404,-0.01 c 0.03086,0 0.05973,-0.01 0.08825,-0.014 0.02852,-0.01 0.05668,-0.016 0.0861,-0.021 l 1.173985,0 1.173986,0 0,-3.1501 0,-3.1501 c 0,-0.5301 -0.05454,-1.0478 -0.157359,-1.5475 -0.102823,-0.4998 -0.253934,-0.9816 -0.447084,-1.4398 l -0.401029,-1.8453 -0.401028,-1.8452 c 0,-0.3083 -0.124857,-0.5858 -0.326764,-0.7862 -0.201906,-0.2005 -0.480861,-0.3239 -0.789057,-0.3239 l -8.380836,0 -8.380836,0 c -0.113179,-0.266 -0.30197,-0.4912 -0.539527,-0.65 -0.237557,-0.1587 -0.52388,-0.2509 -0.832123,-0.2509 l -1.714514,0 -1.714514,0 2.077771,-1.4181 2.077771,-1.4181 0,0 0,0 -2.057425,-1.4007 -2.057425,-1.4007 0,-0.2267 0,-0.2266 0,-0.073 0,-0.073 0.07263,-0.049 0.07262,-0.049 -0.07262,0 -0.07263,0 0,-0.1192 0,-0.1191 0,-0.099 0,-0.099 c 0,-0.1546 -0.06222,-0.294 -0.163074,-0.3949 -0.100851,-0.1008 -0.240329,-0.163 -0.39484,-0.163 l -0.482411,0 -0.48241,0 0,0 z m 0.499885,1.796 0.0145,0 0.0145,0 1.976043,1.3512 1.976043,1.3513 -1.984757,1.3542 -1.984757,1.3542 -1.987675,-1.3542 -1.987675,-1.3542 1.981882,-1.3513 1.981882,-1.3512 7e-6,0 z m -21.841171,8.5144 0.677065,0 0.677064,0 c 0.206104,0 0.392089,0.083 0.526549,0.2175 0.134459,0.1345 0.217393,0.3205 0.217393,0.5265 l 0,1.5314 0,1.5314 c 0,0.2061 -0.08296,0.3921 -0.217428,0.5265 -0.134472,0.1345 -0.320457,0.2174 -0.526514,0.2174 l -1.02869,0 -1.028689,0 c -0.206103,0 -0.392089,-0.083 -0.526549,-0.2174 -0.13446,-0.1345 -0.217394,-0.3204 -0.217394,-0.5265 0,0 0.180968,-0.8161 0.366623,-1.6433 0.185656,-0.8273 0.375999,-1.6657 0.394749,-1.7102 0.01878,-0.044 0.04121,-0.087 0.06735,-0.1273 0.02614,-0.04 0.056,-0.077 0.08967,-0.1109 0.03357,-0.034 0.07086,-0.063 0.110894,-0.09 0.04003,-0.026 0.0828,-0.049 0.127327,-0.067 0.04452,-0.019 0.09139,-0.034 0.140023,-0.043 0.04863,-0.01 0.09902,-0.015 0.150563,-0.015 l 0,0 z m 4.376336,0 0.880521,0 0.880522,0 c 0.206103,0 0.392089,0.083 0.526549,0.2175 0.134459,0.1345 0.217393,0.3205 0.217393,0.5265 l 0,4.8093 0,4.8093 c 0,0.2062 -0.08296,0.3922 -0.217428,0.5266 -0.134471,0.1345 -0.320457,0.2174 -0.526514,0.2174 l -0.880522,0 -0.880521,0 c -0.206058,0 -0.39202,-0.083 -0.526468,-0.2174 -0.134448,-0.1345 -0.217382,-0.3205 -0.217382,-0.5266 l 0,-4.8093 0,-4.8093 c -4.7e-5,-0.206 0.08289,-0.392 0.217347,-0.5265 0.13446,-0.1345 0.320445,-0.2175 0.526503,-0.2175 z m 4.149707,0 0.880521,0 0.880522,0 c 0.206057,0 0.392019,0.083 0.526468,0.2175 0.134448,0.1345 0.217382,0.3205 0.217382,0.5265 l 0,4.8093 0,4.8093 c 0,0.2062 -0.08296,0.3922 -0.217417,0.5266 -0.13446,0.1345 -0.320423,0.2174 -0.526433,0.2174 l -0.880522,0 -0.880521,0 c -0.206104,0 -0.392089,-0.083 -0.526549,-0.2174 -0.13446,-0.1345 -0.217394,-0.3205 -0.217394,-0.5266 l 0,-4.8093 0,-4.8093 c 0,-0.206 0.08296,-0.392 0.217429,-0.5265 0.134471,-0.1345 0.320457,-0.2175 0.526514,-0.2175 z m 4.550686,0 1.984804,0 1.984803,0 c 0.2061,0 0.392084,0.083 0.526542,0.2175 0.134459,0.1345 0.217393,0.3205 0.217393,0.5265 l 0,1.5314 0,1.5314 c 0,0.2061 -0.08296,0.3921 -0.217425,0.5265 -0.134469,0.1345 -0.320453,0.2174 -0.52651,0.2174 l -1.984803,0 -1.984804,0 c -0.206057,0 -0.39202,-0.083 -0.526468,-0.2174 -0.134448,-0.1345 -0.217382,-0.3204 -0.217382,-0.5265 l 0,-1.5314 0,-1.5314 c 0,-0.206 0.08296,-0.392 0.217417,-0.5265 0.134459,-0.1345 0.320422,-0.2175 0.526433,-0.2175 z m 6.794192,0 1.984758,0 1.984757,0 c 0.2061,0 0.392084,0.083 0.526542,0.2175 0.134459,0.1345 0.217393,0.3205 0.217393,0.5265 l 0,1.5314 0,1.5314 c 0,0.2061 -0.08296,0.3921 -0.217425,0.5265 -0.134469,0.1345 -0.320453,0.2174 -0.52651,0.2174 l -1.984757,0 -1.984758,0 c -0.206103,0 -0.392066,-0.083 -0.526503,-0.2174 -0.134436,-0.1345 -0.217347,-0.3204 -0.217347,-0.5265 l 0,-1.5314 0,-1.5314 c 0,-0.206 0.08291,-0.392 0.217347,-0.5265 0.134437,-0.1345 0.3204,-0.2175 0.526503,-0.2175 z m 6.695379,0 1.984757,0 1.984757,0 c 0.206104,0 0.392089,0.083 0.526549,0.2175 0.13446,0.1345 0.217394,0.3205 0.217394,0.5265 l 0,1.5314 0,1.5314 c 0,0.2061 -0.08296,0.3921 -0.217428,0.5265 -0.134472,0.1345 -0.320457,0.2174 -0.526515,0.2174 l -1.984757,0 -1.984757,0 c -0.206103,0 -0.392089,-0.083 -0.526549,-0.2174 -0.13446,-0.1345 -0.217394,-0.3204 -0.217394,-0.5265 l 0,-1.5314 0,-1.5314 c -4.3e-5,-0.206 0.08289,-0.392 0.217362,-0.5265 0.13447,-0.1345 0.320478,-0.2175 0.526581,-0.2175 z m 6.892821,0 0.880522,0 0.880521,0 c 0.206103,0 0.392066,0.083 0.526503,0.2175 0.134436,0.1345 0.217347,0.3205 0.217347,0.5265 l 0,4.8093 0,4.8093 c 0,0.2062 -0.08293,0.3922 -0.217382,0.5266 -0.134448,0.1345 -0.32041,0.2174 -0.526468,0.2174 l -0.880521,0 -0.880522,0 c -0.206103,0 -0.392066,-0.083 -0.526503,-0.2174 -0.134436,-0.1345 -0.217347,-0.3205 -0.217347,-0.5266 l 0,-4.8093 0,-4.8093 c 0,-0.206 0.08293,-0.392 0.217382,-0.5265 0.134448,-0.1345 0.320411,-0.2175 0.526468,-0.2175 z m 4.149793,0 0.880522,0 0.880521,0 c 0.206057,0 0.39202,0.083 0.526468,0.2175 0.134448,0.1345 0.217382,0.3205 0.217382,0.5265 l 0,4.8093 0,4.8093 c 0,0.2062 -0.08295,0.3922 -0.217414,0.5266 -0.134459,0.1345 -0.320422,0.2174 -0.526436,0.2174 l -0.880521,0 -0.880522,0 c -0.206103,0 -0.392089,-0.083 -0.526549,-0.2174 -0.13446,-0.1345 -0.217394,-0.3205 -0.217394,-0.5266 l 0,-4.8093 0,-4.8093 c 0,-0.206 0.08293,-0.392 0.217394,-0.5265 0.13446,-0.1345 0.320446,-0.2175 0.526549,-0.2175 z m 4.684443,0 0.679982,0 0.679982,0 c 0.0515,0 0.10189,0.01 0.150531,0.015 0.04864,0.01 0.09554,0.025 0.140062,0.044 0.04457,0.019 0.0859,0.042 0.124482,0.068 0.03858,0.026 0.07442,0.056 0.10799,0.089 0.0336,0.034 0.0649,0.071 0.09249,0.1109 0.02759,0.04 0.05148,0.083 0.07028,0.1273 0.01875,0.044 0.209091,0.8829 0.394745,1.7101 0.185653,0.8273 0.366619,1.6434 0.366619,1.6434 0,0.2061 -0.08295,0.3921 -0.217414,0.5265 -0.134459,0.1345 -0.320421,0.2174 -0.526436,0.2174 l -1.03161,0 -1.031611,0 c -0.2061,0 -0.392084,-0.083 -0.526543,-0.2174 -0.134459,-0.1344 -0.217393,-0.3204 -0.217393,-0.5265 l 0,-1.5314 0,-1.5314 c -9.3e-5,-0.2061 0.08282,-0.3921 0.217278,-0.5266 0.13446,-0.1344 0.320469,-0.2174 0.526572,-0.2174 l 0,-4e-4 z" inkscape:connector-curvature="0" sodipodi:nodetypes="csscccccccccccccccccccccssccsscscssccccssccccccssscccssscccssscccssscccccccsccccsscccssccsscccccccccccccccccccssscccccccccccccccccccssscssscsscscscscscccscssscssscsssccssscssscssscssscsssscssscssscssscsssscssscssscssscsssscssscssscsssccssscssscssscssscsssscssscssscssscsssccsscscscscsscsssccsccc"/>
  </g>
</svg>